<svg width="39" height="39" viewBox="0 0 39 39" fill="none" xmlns="http://www.w3.org/2000/svg">
<circle cx="19.0467" cy="19.0468" r="19.016" transform="rotate(-0.0925947 19.0467 19.0468)" fill="white"/>
<path d="M17.616 15.816C17.408 15.48 17.112 15.224 16.728 15.048C16.344 14.856 15.88 14.76 15.336 14.76C14.312 14.76 13.52 15.096 12.96 15.768C12.4 16.424 12.12 17.328 12.12 18.48C12.12 19.808 12.432 20.8 13.056 21.456C13.68 22.112 14.64 22.44 15.936 22.44C17.168 22.44 18.16 21.944 18.912 20.952H14.664V17.184H23.328V22.512C22.592 23.776 21.576 24.864 20.28 25.776C18.984 26.672 17.344 27.12 15.36 27.12C13.6 27.12 12.064 26.76 10.752 26.04C9.456 25.304 8.456 24.28 7.752 22.968C7.064 21.656 6.72 20.16 6.72 18.48C6.72 16.8 7.064 15.304 7.752 13.992C8.456 12.68 9.456 11.664 10.752 10.944C12.048 10.208 13.568 9.84 15.312 9.84C17.536 9.84 19.344 10.376 20.736 11.448C22.144 12.52 22.976 13.976 23.232 15.816H17.616ZM30.5749 10.008V27H25.2469V10.008H30.5749Z" fill="#252422"/>
</svg>
